{"title":"MILFSugarBabes.Bridgette.B.XXX.1080p.XXXmegathor.avi","uid":10628620,"size":1166744438,"categoryP":"porn","categoryS":"movies","magnet":"?xt=urn:btih:3de5954b6cf1e87b0e2f82d64b5914bb359b9926&amp;dn=MILFSugarBabes.Bridgette.B.XXX.1080p.XXXmegathor.avi&amp;tr=udp%3A%2F%2Ftracker.openbittorrent.com%3A80&amp;tr=udp%3A%2F%2Fopen.demonii.com%3A1337&amp;tr=udp%3A%2F%2Ftracker.coppersurfer.tk%3A6969&amp;tr=udp%3A%2F%2Fexodus.desync.com%3A6969","seeders":1,"leechers":1,"uploader":"XXXmegathor","files":1,"time":1406278842,"description":"MILFSugarBabes.Bridgette.B.XXX.1080p.XXXmegathor\n\nSCREENIES &lt;a href=&quot;\nhttp://xxxtrapics.com/image/RO&quot; rel=&quot;nofollow&quot; target=&quot;_NEW&quot;&gt;\nhttp://xxxtrapics.com/image/RO&lt;/a&gt;\n\n\nDuration : 41mn 29s\nBit rate mode : Constant\nBit rate : 3 600 Kbps\nWidth : 1 920 pixels\nHeight : 1 080 pixels\nDisplay aspect ratio : 16:9\nFrame rate mode : Constant\nFrame rate : 23.976 fps\nStandard : NTSC\nColor space : YUV\nChroma subsampling : 4:2:0\nBit depth : 8 bits\nScan type : Progressive\nBits/(Pixel*Frame) : 0.072\nStream size : 1.04 GiB (96%)\nLanguage : English\nEncoded date : UTC 2012-03-22 15:13:34\nTagged date : UTC 2012-03-22 15:13:34\n\nAudio\nID : 2\nFormat : AAC\nFormat/Info : Advanced Audio Codec\nFormat profile : LC\nCodec ID : 40\nDuration : 41mn 29s\nBit rate mode : Variable\nBit rate : 157 Kbps\nMaximum bit rate : 251 Kbps\nChannel(s) : 2 channels\nChannel positions : Front: L R\nSampling rate : 48.0 KHz\nCompression mode : Lossy\nStream size : 46.7 MiB (4%)\nLanguage : English\nEncoded date : UTC 2012-03-22 15:13:34\nTagged date : UTC 2012-03-22 15:13:34\n\n\n","torrent":{"xt":"urn:btih:3de5954b6cf1e87b0e2f82d64b5914bb359b9926","amp;dn":"MILFSugarBabes.Bridgette.B.XXX.1080p.XXXmegathor.avi","amp;tr":["udp%3A%2F%2Ftracker.openbittorrent.com%3A80","udp%3A%2F%2Fopen.demonii.com%3A1337","udp%3A%2F%2Ftracker.coppersurfer.tk%3A6969","udp%3A%2F%2Fexodus.desync.com%3A6969"],"infoHash":"3de5954b6cf1e87b0e2f82d64b5914bb359b9926","infoHashBuffer":{"type":"Buffer","data":[61,229,149,75,108,241,232,123,14,47,130,214,75,89,20,187,53,155,153,38]},"announce":[],"urlList":[]}}